<?xml version="1.0" encoding="utf-8"?>
<!-- Generator: Adobe Illustrator 21.1.0, SVG Export Plug-In . SVG Version: 6.00 Build 0)  -->
<svg version="1.1" id="Layer_1" xmlns="http://www.w3.org/2000/svg" xmlns:xlink="http://www.w3.org/1999/xlink" x="0px" y="0px"
	 viewBox="0 0 327 86.5" style="enable-background:new 0 0 327 86.5;" xml:space="preserve">
<g>
	<path style="fill:#00D10F;stroke:#FFFFFF;stroke-width:0.2758;stroke-miterlimit:10;" d="M28.2,47.3c-4.1,1.8-6.2,5.2-7.1,9.1
		c-2.2,0.6-4.1,1.1-6.1,1.5c-0.5,0.1-1.3-0.3-1.7-0.8c-2.6-3-4.1-6.6-4.8-10.5c-0.5-2.6,0.5-3.8,3-4.7C17,40.2,24.5,42.5,28.2,47.3z
		"/>
	<path style="fill:#00D10F;stroke:#FFFFFF;stroke-width:0.2758;stroke-miterlimit:10;" d="M21.4,27.2c0.8,0.2,1.7,0.1,2.4,0.5
		c2.7,1.8,5.3,3.7,8,5.7c1.3,1,1.8,2.3,1.3,3.9c-0.5,1.9-0.9,3.9-1.5,5.9c-0.4,1.3-1.2,1.7-2.6,0.9c-2.7-1.6-5.7-2.8-8.4-4.4
		c-0.7-0.4-1.5-1.1-1.7-1.8c-0.7-3.2-0.4-6.3,1.2-9.1C20.2,28.2,20.8,27.8,21.4,27.2z"/>
	<path style="fill:#00D10F;stroke:#FFFFFF;stroke-width:0.2758;stroke-miterlimit:10;" d="M44.6,65.8c-2.6,5.4-5.9,9.6-11.8,10.9
		c-1.1,0.2-2.4,0-3.6-0.3c-0.6-0.1-1.3-0.9-1.4-1.4c-0.9-4.1-0.1-7.9,2.5-11c0.4-0.5,1.5-0.8,2.2-0.8c2,0,4,0.1,6,0.5
		C40.5,64.1,42.3,65,44.6,65.8z"/>
	<path style="fill:#00D10F;stroke:#FFFFFF;stroke-width:0.2758;stroke-miterlimit:10;" d="M18.7,3.8c2.1,1.6,4.3,3.2,6.3,5
		c1.7,1.6,2.4,4,1.9,6.3c-0.6,2.7-1.6,5.2-2.6,7.8c-0.6,1.4-2,1.4-2.9,0.6c-1.9-1.6-3.8-3.4-5.2-5.5c-0.7-1.1-0.4-3-0.2-4.5
		c0.2-2.4,0.7-4.7,1.1-7.1c0.1-0.9,0.2-1.8,0.3-2.7C17.7,3.8,18.2,3.8,18.7,3.8z"/>
	<path style="fill:#00D10F;stroke:#FFFFFF;stroke-width:0.2758;stroke-miterlimit:10;" d="M49.9,40.8c0.5,2.8,1.3,5.6,1.4,8.4
		c0.1,4.3-0.7,8.5-2.9,12.4c-1,1.8-2.2,2.5-4.2,1.6c-1.2-0.5-2.4-1-4.1-1.6c1-2.6,1.6-5.2,2.9-7.4c1.8-2.9,3.4-5.8,4.1-9.2
		c0.3-1.4,1-2.8,1.5-4.2C49.1,40.7,49.5,40.8,49.9,40.8z"/>
	<path style="fill:#00D10F;stroke:#FFFFFF;stroke-width:0.2758;stroke-miterlimit:10;" d="M29.5,12.2c3.2,3.6,6.1,7.2,7.7,11.7
		c0.2,0.6,0.1,1.5-0.2,2c-0.8,1.4-1.8,2.6-2.7,3.9c-0.7,1.1-1.5,1-2.5,0.3c-2.1-1.6-4.3-3.1-6.8-5C26.4,21.1,27.9,16.8,29.5,12.2z"
		/>
	<path style="fill:#00D10F;stroke:#FFFFFF;stroke-width:0.2758;stroke-miterlimit:10;" d="M12.4,62.2c1.6-0.6,2.7-0.9,3.7-1.5
		c4-2.2,7.5-1.3,10.8,1.6c0.4,0.4,0.9,0.8,1,1.3c0.4,3-3.1,6.2-6,5.5C18,68.2,15,65.6,12.4,62.2z"/>
	<path style="fill:#00D10F;stroke:#FFFFFF;stroke-width:0.2758;stroke-miterlimit:10;" d="M15.5,37.5c-0.6-1.4-1.3-2.8-1.8-4.2
		c-0.9-2.6-1.6-5.3-2.6-7.9c-1-3-0.1-5.5,1.2-8.7c2.8,2.9,5.3,5.6,8,8.4c-4.1,3.3-3.5,7.9-3.9,12.1C16.2,37.4,15.8,37.5,15.5,37.5z"
		/>
	<path style="fill:#00D10F;stroke:#FFFFFF;stroke-width:0.2758;stroke-miterlimit:10;" d="M38,60.7c-4.5,0.7-8.8,0-13-3
		c-0.2-0.2-0.5-0.4-0.7-0.7c-1-1.5-0.1-5.4,1.7-7.3c1.3-1.4,3-1.4,4.3,0.1c2.8,3.3,5.4,6.8,8.1,10.2C38.3,60.2,38.2,60.5,38,60.7z"
		/>
	<path style="fill:#00D10F;stroke:#FFFFFF;stroke-width:0.2758;stroke-miterlimit:10;" d="M39,58.1c-2.3-3.3-4.3-6.1-6.2-9.1
		c-1-1.5-0.7-3.2,0.4-4.2c0.9-0.8,2.5-1.2,3.6-1c4.2,0.7,6,4.4,4.3,8.3C40.4,53.9,39.8,55.7,39,58.1z"/>
	<path style="fill:#00D10F;stroke:#FFFFFF;stroke-width:0.2758;stroke-miterlimit:10;" d="M42.3,44.3c-2.1-1.2-4.1-2.1-6-3.3
		c-0.7-0.5-1.6-1.6-1.5-2.3c0.4-3,1-6,2-8.8c0.5-1.7,2.8-1.5,3.4,0.3c1,3,1.7,6.2,2.2,9.3C42.6,41.2,42.4,43,42.3,44.3z"/>
	<path style="fill:#00D10F;stroke:#FFFFFF;stroke-width:0.2758;stroke-miterlimit:10;" d="M8.3,20.4c0.4,2,0.8,4,1.4,5.9
		c1,3.4,2.1,6.7,3.3,10c0.6,1.7,0.3,2.7-1.8,3.5c-5,1.9-4.7,2.2-4.8-2.6c-0.1-4.3-0.1-8.6,0-12.9c0-1.3,0.6-2.6,1-4
		C7.7,20.3,8,20.3,8.3,20.4z"/>
	<path style="fill:#00D10F;stroke:#FFFFFF;stroke-width:0.2758;stroke-miterlimit:10;" d="M25.9,76.6c-8-1-12.8-5.6-15.6-13.5
		c1.6,1.5,2.9,2.6,4.1,3.9c2.1,2.3,4.7,3.4,7.5,4.1C25.5,72.1,25.6,72.3,25.9,76.6z"/>
	<path style="fill:#00D10F;stroke:#FFFFFF;stroke-width:0.2758;stroke-miterlimit:10;" d="M46.5,68c1.1,1.5,2.2,3,3.5,4.7
		c-3.5,3-7.7,4.3-12.4,4.8C40.6,74.3,43.6,71.2,46.5,68z"/>
	<path style="fill:#00D10F;stroke:#FFFFFF;stroke-width:0.2758;stroke-miterlimit:10;" d="M13.4,59.3C6.1,59.1,2.8,49,5.1,39.8
		c0.4,1,1,2.1,1.2,3.1c0.5,2.9,0.5,5.9,1.5,8.6c0.8,2.2,2.6,4.1,4,6.1C12.3,58.1,12.8,58.6,13.4,59.3z"/>
	<path style="fill:#00D10F;stroke:#FFFFFF;stroke-width:0.2758;stroke-miterlimit:10;" d="M35.3,78.8c-0.4,0.6-0.7,1.4-1.3,1.9
		c-2.4,1.9-5.2,2.7-8.2,2.2c-0.8-0.1-1.6-1.6-2.2-2.6c-0.4-0.6-0.3-1.5-0.4-2.3C27.2,78.3,31.1,78.5,35.3,78.8z"/>
	<path style="fill:#00D10F;stroke:#FFFFFF;stroke-width:0.2758;stroke-miterlimit:10;" d="M42.3,26.4c4,1.7,5.7,15,2.7,20.1
		C44.1,39.9,43.2,33.1,42.3,26.4z"/>
	<path style="fill:#00D10F;stroke:#FFFFFF;stroke-width:0.2758;stroke-miterlimit:10;" d="M14.6,6.5c0.5,4,0.7,7.9-4.3,9.3
		C10.6,12,11.7,8.8,14.6,6.5z"/>
	<path style="fill:#00D10F;stroke:#FFFFFF;stroke-width:0.2758;stroke-miterlimit:10;" d="M51.2,61.5c-0.3,1.9-0.5,3.7-0.8,5.6
		c-0.1,0.5-0.8,0.8-1.2,1.2c-0.3-0.6-1-1.3-0.9-1.7c0.6-1.8,1.4-3.6,2.1-5.3C50.6,61.3,50.9,61.4,51.2,61.5z"/>
</g>
<g>
	<path style="fill:#00D10F;" d="M68.3,19.8h10.1c4.2,0,7.3,0.9,9.3,2.6c2,1.8,3,4.4,3,8c0,5.4-2.2,9.4-6.5,11.8
		c5.3,1.2,8,4.8,8,10.9c0,4-1.1,7.2-3.2,9.6c-2.2,2.4-5.9,3.6-11.3,3.6l-10,0c-0.2-0.8-0.3-1.5-0.3-2.2c0-0.5,0.1-0.8,0.2-1
		s0.4-0.3,0.8-0.3H70c0.1-3.2,0.2-10,0.2-20.6c0-9.5-0.1-15.8-0.2-19h-2.4c-0.2-0.8-0.3-1.5-0.3-2.1c0-0.5,0.1-0.8,0.2-1
		C67.7,19.9,67.9,19.8,68.3,19.8z M75.2,39.9c0.9,0.2,1.9,0.3,2.9,0.3c2.5,0,4.3-0.7,5.4-2c1.1-1.3,1.6-3.2,1.6-5.7
		c0-2.6-0.5-4.6-1.6-5.8c-1.1-1.2-2.8-1.9-5.1-1.9c-1.1,0-2.1,0.1-3.1,0.3C75.2,28,75.2,33,75.2,39.9z M75.2,44.8v8.1
		c0,4,0.2,6.4,0.6,7.2c0.4,0.8,1.8,1.2,4.2,1.2c2.4,0,4.1-0.6,5.1-1.9s1.5-3.2,1.5-5.9c0-3-0.7-5.2-2-6.8c-1.3-1.6-3.3-2.4-6-2.4
		C77.4,44.5,76.2,44.6,75.2,44.8z"/>
	<path style="fill:#00D10F;" d="M96.6,34.3c0-0.6,0.2-1,0.5-1.2c0.3-0.2,2.3-0.3,6-0.5c0.1,1,0.1,2.4,0,4.2c1.7-1.7,3.3-2.9,4.9-3.5
		c1.6-0.7,3-1,4.2-1c0.4,0,0.7,0.1,0.9,0.2s0.2,0.5,0.2,1c0,1-0.1,2-0.3,3.1s-0.5,1.8-0.7,2.1c-0.3,0.3-0.8,0.5-1.4,0.7
		s-1.1,0.2-1.2,0.1c-0.1-0.1-0.5-0.7-1-1.9c-1.3,0-2.4,0.6-3.3,1.9c-0.8,1.3-1.3,3.9-1.3,7.8c0,7,0.1,12.2,0.2,15.6h3.2
		c0.2,0.6,0.3,1.2,0.3,1.9c0,0.6-0.1,1-0.2,1.3c-0.2,0.2-0.5,0.3-1,0.3h-9.6c-0.2-0.7-0.3-1.4-0.3-2c0-0.5,0.1-0.9,0.2-1.1
		c0.2-0.2,0.4-0.4,0.8-0.4h1.6c0.1-3.4,0.2-7.8,0.2-13.3c0-6.7-0.2-10.6-0.5-11.7c-0.3-1.1-1-1.6-2-1.6C96.7,35.6,96.6,35,96.6,34.3
		z"/>
	<path style="fill:#00D10F;" d="M127.3,32.1c2.8,0,4.9,1,6.3,3c1.4,2,2,5.3,2,9.9c0,2-0.2,3.4-0.7,4.2c-0.5,0.8-1.5,1.2-3.2,1.2h-10
		c0,3.7,0.5,6.6,1.5,8.7c1,2.1,2.7,3.2,5.1,3.2c2.3,0,4.4-0.9,6.3-2.7c0.7,1,1,2,1,3.1c0,1.5-0.8,2.6-2.5,3.2
		c-1.7,0.6-3.6,0.9-5.7,0.9c-3.9,0-6.7-1.2-8.4-3.7c-1.7-2.5-2.5-6.6-2.5-12.5c0-5.8,1-10.3,2.9-13.6
		C121.2,33.7,123.9,32.1,127.3,32.1z M126.4,36.6c-1.5,0-2.7,0.8-3.5,2.4c-0.8,1.6-1.2,4.2-1.3,7.6h2.3c2.5,0,4.2-0.1,5.1-0.2
		c0.9-0.1,1.4-0.4,1.6-0.7c0.1-0.3,0.2-1,0.2-1.9c0-2.3-0.4-4-1.1-5.3C129,37.3,127.9,36.6,126.4,36.6z"/>
	<path style="fill:#00D10F;" d="M172.2,36.8c-0.5,2.3-1.6,7.4-3.2,15.4c-1.7,8-2.8,12.5-3.3,13.4s-1.3,1.4-2.3,1.4
		c-1.5,0-2.3-0.1-2.5-0.4c-0.1-0.2-0.8-4.7-2.1-13.4c-1.3-8.7-2-13-2.1-13c-0.1,0-0.8,4-2,12c-1.2,8-2.1,12.4-2.7,13.4
		s-1.3,1.4-2.3,1.4c-1.9,0-2.9-0.1-3.1-0.4c-0.2-0.2-0.8-4.3-2.1-12c-1.2-7.8-2-12.4-2.3-13.9c-0.3-1.5-0.6-2.6-0.9-3.2
		c-0.3-0.6-0.5-1-0.8-1.1c-0.3-0.1-0.7-0.2-1.2-0.2c-0.2-0.6-0.3-1.3-0.3-2c0-0.8,0.2-1.2,0.7-1.4c0.4-0.2,1.6-0.3,3.4-0.3
		c1.1,0,1.8,0.1,2.3,0.3c0.4,0.2,0.7,0.6,0.9,1.2c0.2,0.6,0.4,1.9,0.6,4c0.2,2.1,0.8,6.4,1.7,13c0.9,6.6,1.4,9.9,1.6,9.9
		s0.8-3.8,1.9-11.3c1.1-7.5,1.9-13.2,2.4-17c2.8-0.1,4.4-0.1,4.8,0.1c0.4,0.2,0.7,0.5,0.9,1.1s0.4,1.9,0.6,4
		c0.2,2.1,0.8,6.5,1.8,13.1c1,6.6,1.5,10,1.7,10c0.1,0,0.8-3.5,1.9-10.5s1.8-11.6,1.9-13.8h-1.3c-0.2-0.7-0.3-1.3-0.3-2
		s0.1-1.2,0.3-1.4c0.2-0.3,0.5-0.4,0.9-0.4h5.9c0.2,0.6,0.3,1.3,0.3,2c0,0.7-0.1,1.2-0.3,1.4c-0.2,0.3-0.5,0.4-1,0.4H172.2z"/>
	<path style="fill:#00D10F;" d="M191.6,19.8h10.3c0.2,0.7,0.3,1.3,0.3,2c0,0.6-0.1,1-0.2,1.2c-0.2,0.2-0.4,0.3-0.8,0.3l-2,0
		c-0.1,3.1-0.2,8.3-0.2,15.6v25.5c0,3.5-0.2,6.2-0.6,8c-0.4,1.8-1.2,3.2-2.4,4.3c-1.2,1.1-2.9,1.6-5.2,1.6c-1.5,0-2.4-0.2-2.9-0.6
		c-0.5-0.4-0.7-1.2-0.7-2.2c0-1.4,0.2-2.6,0.8-3.6c2.6,1.3,4.3,1.6,5,1c0.7-0.6,1-3.6,1-8.9V38.5c0-7-0.1-12.1-0.2-15.2h-2.8
		c-0.2-0.8-0.3-1.5-0.3-2.1c0-0.5,0.1-0.8,0.2-1C191,19.9,191.2,19.8,191.6,19.8z"/>
	<path style="fill:#00D10F;" d="M220.3,63.6c-1.3,1.1-2.6,2-3.9,2.5c-1.3,0.6-2.7,0.9-3.9,0.9c-2,0-3.6-0.7-4.6-2.2
		c-1-1.4-1.5-3.6-1.5-6.4c0-3.5,0.8-6.1,2.5-8s4.2-2.8,7.7-2.8h3.3c-0.1-4-0.5-6.8-1.1-8.4c-0.7-1.6-1.9-2.4-3.6-2.4
		c-0.9,0-1.8,0.1-2.6,0.4c-0.4,1.3-0.7,2-0.8,2.1c-0.1,0.1-0.5,0.3-1.3,0.6c-0.8,0.3-1.3,0.2-1.6-0.2s-0.6-1.2-1-2.3s-0.5-2-0.5-2.7
		c0-0.5,0.1-0.8,0.4-1.1c0.2-0.2,1.3-0.6,3.1-0.9c1.8-0.4,3.7-0.5,5.7-0.5c2.7,0,4.7,0.7,5.9,2.1s1.9,3.9,1.9,7.6v10.5
		c0,4.9,0.1,7.8,0.4,8.9s0.7,1.5,1.4,1.3c0.2,0.5,0.3,1,0.3,1.5c0,0.8-0.3,1.4-1,1.8s-1.5,0.6-2.6,0.6c-0.5,0-0.9-0.1-1.2-0.3
		C221.3,66.2,220.9,65.3,220.3,63.6z M219.8,52.1c-1.3-0.3-2.7-0.5-4-0.5c-1.7,0-2.9,0.4-3.6,1.3c-0.7,0.9-1,2.2-1,4.1
		c0,1.8,0.3,3.2,0.9,4.1c0.6,0.9,1.6,1.4,2.9,1.4c1,0,1.9-0.3,2.8-0.9c0.9-0.6,1.4-1.4,1.7-2.5c0.3-1.1,0.4-2.7,0.4-5V52.1z"/>
	<path style="fill:#00D10F;" d="M232.6,46.8c0-9.6,0-15.7-0.1-18.4c-0.1-2.6-0.2-4.3-0.3-5.1s-0.4-1.3-0.8-1.5
		c-0.4-0.2-0.8-0.3-1.4-0.3c-0.2-0.7-0.3-1.4-0.3-2.1c0-0.7,0.2-1.1,0.6-1.3s1.6-0.3,3.8-0.3c1.2,0,2,0.1,2.4,0.3
		c0.4,0.2,0.7,0.5,0.7,1c0.1,0.5,0.1,1.3,0.1,2.4l-0.3,13.8c1-1,2-1.7,3.3-2.3c1.2-0.5,2.6-0.8,4.1-0.8c2.4,0,4.3,1.2,5.8,3.6
		s2.1,6.4,2.1,12c0,6.4-0.9,11.2-2.8,14.5c-1.9,3.3-4.6,4.9-8.2,4.9c-1.2,0-2.4-0.2-3.4-0.5c-1-0.3-1.8-0.7-2.4-1.1l-0.7,1.1
		c-1,0-1.6-0.2-1.9-0.5c-0.3-0.3-0.4-1-0.4-1.9c0-0.8,0-2.7,0.1-5.8C232.5,55.2,232.6,51.4,232.6,46.8z M237.2,49.4l0,11
		c0.5,0.6,1.1,1.1,1.9,1.5c0.8,0.4,1.6,0.5,2.6,0.5c1.9,0,3.3-0.9,4.1-2.8c0.8-1.9,1.2-5.2,1.2-9.9c0-4.3-0.4-7.6-1.2-9.8
		c-0.8-2.2-2.1-3.3-3.8-3.3c-1.1,0-2.1,0.3-2.8,1c-0.7,0.7-1.2,1.7-1.5,3C237.4,41.9,237.2,44.8,237.2,49.4z"/>
	<path style="fill:#00D10F;" d="M258.5,46.8c0-9.6,0-15.7-0.1-18.4c-0.1-2.6-0.2-4.3-0.3-5.1s-0.4-1.3-0.8-1.5
		c-0.4-0.2-0.8-0.3-1.4-0.3c-0.2-0.7-0.3-1.4-0.3-2.1c0-0.7,0.2-1.1,0.6-1.3s1.6-0.3,3.8-0.3c1.2,0,2,0.1,2.4,0.3
		c0.4,0.2,0.7,0.5,0.7,1c0.1,0.5,0.1,1.3,0.1,2.4l-0.3,13.8c1-1,2-1.7,3.3-2.3c1.2-0.5,2.6-0.8,4.1-0.8c2.4,0,4.3,1.2,5.8,3.6
		s2.1,6.4,2.1,12c0,6.4-0.9,11.2-2.8,14.5c-1.9,3.3-4.6,4.9-8.2,4.9c-1.2,0-2.4-0.2-3.4-0.5c-1-0.3-1.8-0.7-2.4-1.1l-0.7,1.1
		c-1,0-1.6-0.2-1.9-0.5c-0.3-0.3-0.4-1-0.4-1.9c0-0.8,0-2.7,0.1-5.8C258.5,55.2,258.5,51.4,258.5,46.8z M263.1,49.4l0,11
		c0.5,0.6,1.1,1.1,1.9,1.5c0.8,0.4,1.6,0.5,2.6,0.5c1.9,0,3.3-0.9,4.1-2.8c0.8-1.9,1.2-5.2,1.2-9.9c0-4.3-0.4-7.6-1.2-9.8
		c-0.8-2.2-2.1-3.3-3.8-3.3c-1.1,0-2.1,0.3-2.8,1c-0.7,0.7-1.2,1.7-1.5,3C263.3,41.9,263.2,44.8,263.1,49.4z"/>
	<path style="fill:#00D10F;" d="M293.5,32.1c2.8,0,4.9,1,6.3,3c1.4,2,2,5.3,2,9.9c0,2-0.2,3.4-0.7,4.2c-0.5,0.8-1.5,1.2-3.2,1.2h-10
		c0,3.7,0.5,6.6,1.5,8.7c1,2.1,2.7,3.2,5.1,3.2c2.3,0,4.4-0.9,6.3-2.7c0.7,1,1,2,1,3.1c0,1.5-0.8,2.6-2.5,3.2s-3.6,0.9-5.7,0.9
		c-3.9,0-6.7-1.2-8.4-3.7s-2.5-6.6-2.5-12.5c0-5.8,1-10.3,2.9-13.6C287.4,33.7,290.1,32.1,293.5,32.1z M292.6,36.6
		c-1.5,0-2.7,0.8-3.5,2.4c-0.8,1.6-1.2,4.2-1.3,7.6h2.3c2.5,0,4.2-0.1,5.1-0.2c0.9-0.1,1.4-0.4,1.6-0.7c0.1-0.3,0.2-1,0.2-1.9
		c0-2.3-0.4-4-1.1-5.3S294,36.6,292.6,36.6z"/>
	<path style="fill:#00D10F;" d="M306.5,34.3c0-0.6,0.2-1,0.5-1.2c0.3-0.2,2.3-0.3,6-0.5c0.1,1,0.1,2.4,0,4.2
		c1.7-1.7,3.3-2.9,4.9-3.5c1.6-0.7,3-1,4.2-1c0.4,0,0.7,0.1,0.9,0.2c0.1,0.1,0.2,0.5,0.2,1c0,1-0.1,2-0.3,3.1
		c-0.2,1.1-0.5,1.8-0.7,2.1c-0.3,0.3-0.8,0.5-1.4,0.7s-1.1,0.2-1.2,0.1c-0.1-0.1-0.5-0.7-1-1.9c-1.3,0-2.4,0.6-3.3,1.9
		c-0.8,1.3-1.2,3.9-1.2,7.8c0,7,0.1,12.2,0.2,15.6h3.2c0.2,0.6,0.3,1.2,0.3,1.9c0,0.6-0.1,1-0.2,1.3s-0.5,0.3-1,0.3h-9.6
		c-0.2-0.7-0.3-1.4-0.3-2c0-0.5,0.1-0.9,0.3-1.1c0.2-0.2,0.4-0.4,0.8-0.4h1.6c0.1-3.4,0.2-7.8,0.2-13.3c0-6.7-0.2-10.6-0.5-11.7
		c-0.3-1.1-1-1.6-2-1.6C306.6,35.6,306.5,35,306.5,34.3z"/>
</g>
<g>
</g>
<g>
</g>
<g>
</g>
<g>
</g>
<g>
</g>
<g>
</g>
<g>
</g>
<g>
</g>
<g>
</g>
<g>
</g>
<g>
</g>
<g>
</g>
<g>
</g>
<g>
</g>
<g>
</g>
</svg>
