<?xml version="1.0" encoding="utf-8"?>
<!-- Generator: Adobe Illustrator 21.1.0, SVG Export Plug-In . SVG Version: 6.00 Build 0)  -->
<svg version="1.1" id="Layer_1" xmlns="http://www.w3.org/2000/svg" xmlns:xlink="http://www.w3.org/1999/xlink" x="0px" y="0px"
	 viewBox="0 0 250 402" style="enable-background:new 0 0 250 402;" xml:space="preserve">
<g>
	<path style="fill:#CCCCCC;stroke:#FFFFFF;stroke-width:1.3426;stroke-miterlimit:10;" d="M125.8,222.5c-20,9-30.4,25.3-34.6,44.2
		c-10.7,2.7-20,5.5-29.5,7.2c-2.5,0.5-6.5-1.5-8.4-3.7c-12.7-14.7-19.9-32.3-23.3-51.1c-2.3-12.6,2.7-18.7,14.8-22.7
		C71.3,187.9,107.5,199,125.8,222.5z"/>
	<path style="fill:#CCCCCC;stroke:#FFFFFF;stroke-width:1.3426;stroke-miterlimit:10;" d="M92.5,124.4c3.8,0.8,8.4,0.5,11.5,2.6
		c13.2,8.8,26,18.2,38.7,27.7c6.2,4.6,8.5,11.1,6.4,18.9c-2.6,9.5-4.6,19.2-7.5,28.5c-2,6.4-5.7,8.3-12.7,4.3
		c-13.4-7.7-27.6-13.9-41.1-21.2c-3.4-1.8-7.4-5.5-8.1-9c-3.2-15.3-2-30.4,5.6-44.2C86.7,129.3,89.5,127.5,92.5,124.4z"/>
	<path style="fill:#CCCCCC;stroke:#FFFFFF;stroke-width:1.3426;stroke-miterlimit:10;" d="M205.5,312.4
		c-12.7,26.4-28.8,46.9-57.2,53.1c-5.4,1.2-11.7,0-17.3-1.5c-2.7-0.7-6.2-4.2-6.8-7c-4.3-19.9-0.6-38.2,12-53.8
		c2.1-2.6,7.2-3.9,10.9-3.8c9.7,0.2,19.5,0.4,29,2.5C185.5,304.1,194.5,308.4,205.5,312.4z"/>
	<path style="fill:#CCCCCC;stroke:#FFFFFF;stroke-width:1.3426;stroke-miterlimit:10;" d="M79.2,10.6c10.2,8,21.1,15.4,30.5,24.3
		c8.5,8,11.8,19.3,9.1,30.5c-3.1,13-7.9,25.5-12.7,38c-2.7,7-9.5,6.9-14,3c-9.2-8-18.7-16.5-25.3-26.6c-3.4-5.2-1.8-14.5-1.1-21.8
		c1.2-11.6,3.6-23.1,5.4-34.6c0.7-4.3,0.9-8.6,1.3-13C74.7,10.4,76.9,10.5,79.2,10.6z"/>
	<path style="fill:#CCCCCC;stroke:#FFFFFF;stroke-width:1.3426;stroke-miterlimit:10;" d="M231.2,190.6c2.4,13.7,6.4,27.4,6.7,41.1
		c0.4,21.1-3.4,41.5-13.9,60.1c-5,8.9-10.8,12-20.3,7.6c-5.7-2.6-11.7-4.7-19.8-7.9c4.8-12.5,7.7-25.5,14.3-36.1
		c8.7-14.1,16.4-28.3,20-44.8c1.5-7,4.9-13.6,7.5-20.3C227.4,190.4,229.3,190.5,231.2,190.6z"/>
	<path style="fill:#CCCCCC;stroke:#FFFFFF;stroke-width:1.3426;stroke-miterlimit:10;" d="M132.1,51.3c15.4,17.5,29.6,35,37.7,56.7
		c1,2.8,0.4,7.1-1.2,9.7c-3.9,6.6-8.8,12.5-13.1,18.9c-3.6,5.5-7.1,5.1-12.1,1.3c-10.2-7.9-20.9-15.2-33.1-24.1
		C117,94.8,124.4,73.6,132.1,51.3z"/>
	<path style="fill:#CCCCCC;stroke:#FFFFFF;stroke-width:1.3426;stroke-miterlimit:10;" d="M48.7,294.9c7.7-3,13.1-4.5,17.8-7.2
		c19.4-10.8,36.7-6.2,52.8,8c2,1.8,4.5,4.1,4.9,6.5c2.1,14.4-15.3,30.4-29.1,26.7C75.9,323.8,61.5,311.6,48.7,294.9z"/>
	<path style="fill:#CCCCCC;stroke:#FFFFFF;stroke-width:1.3426;stroke-miterlimit:10;" d="M63.9,174.7c-3-6.8-6.4-13.5-8.8-20.4
		c-4.5-12.8-8-25.9-12.5-38.6c-5.1-14.4-0.5-27,5.7-42.1c13.5,14.2,26,27.3,39.1,41.1c-19.7,15.9-17.1,38.3-18.8,59.1
		C67.1,174,65.5,174.4,63.9,174.7z"/>
	<path style="fill:#CCCCCC;stroke:#FFFFFF;stroke-width:1.3426;stroke-miterlimit:10;" d="M173.4,287.5c-21.8,3.2-43-0.1-63.2-14.7
		c-1.2-0.9-2.3-2.1-3.2-3.4c-4.9-7.4-0.6-26.3,8.3-35.6c6.4-6.7,14.6-6.8,20.9,0.6c13.7,15.9,26.3,33,39.4,49.6
		C174.9,285.1,174.2,286.3,173.4,287.5z"/>
	<path style="fill:#CCCCCC;stroke:#FFFFFF;stroke-width:1.3426;stroke-miterlimit:10;" d="M178.3,275c-11.2-16.2-21.1-29.9-30.4-44
		c-4.7-7.2-3.5-15.6,2.2-20.5c4.3-3.7,12-5.9,17.6-5c20.6,3.4,29.4,21.5,21.1,40.3C185,254.3,182.4,263.4,178.3,275z"/>
	<path style="fill:#CCCCCC;stroke:#FFFFFF;stroke-width:1.3426;stroke-miterlimit:10;" d="M194.5,207.4
		c-10.3-5.6-20.1-10.3-29.1-16.1c-3.5-2.3-8-7.8-7.5-11c2.2-14.5,5-29,9.5-42.9c2.6-8.1,13.5-7.3,16.4,1.7
		c4.8,14.7,8.1,30,10.7,45.3C195.9,192.6,194.6,201.2,194.5,207.4z"/>
	<path style="fill:#CCCCCC;stroke:#FFFFFF;stroke-width:1.3426;stroke-miterlimit:10;" d="M28.6,91.1c2.2,9.7,3.8,19.5,6.6,29
		c5,16.4,10.3,32.6,16.2,48.7c3.1,8.4,1.4,13.1-8.6,16.8c-24.3,9-23,10.6-23.4-12.7c-0.4-20.9-0.6-41.8-0.1-62.8
		c0.2-6.4,3.1-12.9,4.7-19.3C25.7,90.9,27.2,91,28.6,91.1z"/>
	<path style="fill:#CCCCCC;stroke:#FFFFFF;stroke-width:1.3426;stroke-miterlimit:10;" d="M114.5,365.1c-38.9-4.7-62.5-27-75.8-65.6
		c7.7,7.2,14.2,12.6,19.9,18.8c10.1,11,22.7,16.4,36.4,20.2C112.4,343.2,113.1,344.1,114.5,365.1z"/>
	<path style="fill:#CCCCCC;stroke:#FFFFFF;stroke-width:1.3426;stroke-miterlimit:10;" d="M214.8,323c5.5,7.4,11,14.7,17.2,23
		c-16.8,14.8-37.4,20.8-60.4,23.3C186,353.9,200.4,338.4,214.8,323z"/>
	<path style="fill:#CCCCCC;stroke:#FFFFFF;stroke-width:1.3426;stroke-miterlimit:10;" d="M53.7,280.7
		c-35.5-0.8-51.5-50.2-40.2-94.8c2,5.1,4.8,10,5.8,15.2c2.6,13.9,2.6,28.6,7.2,41.7c3.8,10.8,12.8,19.8,19.7,29.6
		C48.1,275,50.6,277.2,53.7,280.7z"/>
	<path style="fill:#CCCCCC;stroke:#FFFFFF;stroke-width:1.3426;stroke-miterlimit:10;" d="M160.1,375.6c-1.9,2.9-3.3,7-6.2,9.3
		c-11.5,9.4-25.4,13-39.8,10.8c-4.1-0.6-8-7.8-10.8-12.7c-1.8-3.1-1.5-7.5-2.2-11.1C120.7,373.2,139.8,374.4,160.1,375.6z"/>
	<path style="fill:#CCCCCC;stroke:#FFFFFF;stroke-width:1.3426;stroke-miterlimit:10;" d="M194.2,120.5c19.5,8.4,27.8,73.3,13,97.6
		C203,186.4,198.6,153.2,194.2,120.5z"/>
	<path style="fill:#CCCCCC;stroke:#FFFFFF;stroke-width:1.3426;stroke-miterlimit:10;" d="M59.7,23.6C62,43.2,63,62.1,38.5,68.9
		C40,50.7,45.4,35,59.7,23.6z"/>
	<path style="fill:#CCCCCC;stroke:#FFFFFF;stroke-width:1.3426;stroke-miterlimit:10;" d="M237.6,291.5c-1.3,9-2.2,18.1-4.1,27
		c-0.5,2.3-3.9,3.9-6,5.8c-1.5-2.9-4.8-6.3-4.2-8.4c2.7-8.9,6.6-17.3,10.1-25.9C234.8,290.5,236.2,291,237.6,291.5z"/>
</g>
<g>
</g>
<g>
</g>
<g>
</g>
<g>
</g>
<g>
</g>
<g>
</g>
<g>
</g>
<g>
</g>
<g>
</g>
<g>
</g>
<g>
</g>
<g>
</g>
<g>
</g>
<g>
</g>
<g>
</g>
</svg>
